<svg xmlns="http://www.w3.org/2000/svg" viewBox="0 0 1200 300" preserveAspectRatio="xMidYMid slice">
  <defs>
    <linearGradient id="sky" x1="0%" y1="0%" x2="0%" y2="100%">
      <stop offset="0%" stop-color="#6fe7ff"/>
      <stop offset="55%" stop-color="#9cf3ff"/>
      <stop offset="100%" stop-color="#dcfff7"/>
    </linearGradient>
    <linearGradient id="sea" x1="0%" y1="0%" x2="100%" y2="100%">
      <stop offset="0%" stop-color="#1dbcc9"/>
      <stop offset="50%" stop-color="#1fd6bb"/>
      <stop offset="100%" stop-color="#44e3a6"/>
    </linearGradient>
    <linearGradient id="sand" x1="0%" y1="0%" x2="100%" y2="0%">
      <stop offset="0%" stop-color="#ffe27a"/>
      <stop offset="50%" stop-color="#ffd35a"/>
      <stop offset="100%" stop-color="#ffef9d"/>
    </linearGradient>
    <linearGradient id="hill" x1="0%" y1="0%" x2="100%" y2="100%">
      <stop offset="0%" stop-color="#39c96f"/>
      <stop offset="100%" stop-color="#128f55"/>
    </linearGradient>
  </defs>

  <rect width="1200" height="300" fill="url(#sky)"/>
  <circle cx="985" cy="66" r="38" fill="#ffe25c"/>
  <circle cx="985" cy="66" r="56" fill="#fff5b5" opacity="0.35"/>

  <g opacity="0.45" fill="#ffffff">
    <ellipse cx="160" cy="58" rx="68" ry="20"/>
    <ellipse cx="244" cy="56" rx="42" ry="15"/>
    <ellipse cx="420" cy="48" rx="62" ry="18"/>
    <ellipse cx="502" cy="48" rx="34" ry="12"/>
    <ellipse cx="796" cy="60" rx="58" ry="18"/>
    <ellipse cx="874" cy="60" rx="36" ry="12"/>
  </g>

  <path d="M0 176 C114 154 186 160 266 176 C334 190 414 192 486 174 C564 154 642 148 724 170 C828 198 934 194 1024 170 C1092 152 1148 152 1200 162 L1200 300 L0 300 Z" fill="#79db7d" opacity="0.7"/>
  <path d="M0 188 C120 164 214 174 300 196 C386 218 470 220 562 194 C644 172 730 168 824 188 C932 212 1042 208 1200 180 L1200 300 L0 300 Z" fill="url(#hill)"/>

  <path d="M0 164 C180 144 304 150 454 176 C582 198 730 202 858 180 C980 160 1082 160 1200 174 L1200 240 L0 232 Z" fill="url(#sea)"/>
  <path d="M0 200 C146 188 264 194 372 210 C524 232 684 236 834 214 C966 194 1086 192 1200 204 L1200 252 L0 248 Z" fill="#8ef3df" opacity="0.72"/>
  <path d="M0 230 C164 220 318 226 480 244 C654 264 812 266 972 246 C1060 234 1136 232 1200 238 L1200 300 L0 300 Z" fill="url(#sand)"/>

  <g transform="translate(170 122)">
    <rect x="0" y="26" width="10" height="72" rx="5" fill="#6e4b2d"/>
    <path d="M-22 34 C-8 6 18 2 34 24 C22 24 12 30 8 44 C-2 30 -10 28 -22 34 Z" fill="#17b96d"/>
    <path d="M-14 16 C6 -8 38 -2 48 24 C28 18 12 24 4 40 C-4 26 -10 20 -14 16 Z" fill="#29d780"/>
    <path d="M0 10 C20 -18 56 -14 72 18 C44 12 24 20 12 38 C8 24 4 18 0 10 Z" fill="#69e39f"/>
  </g>

  <g transform="translate(986 150) scale(-1 1)">
    <rect x="0" y="26" width="10" height="74" rx="5" fill="#7b5331"/>
    <path d="M-20 34 C-6 8 20 2 36 24 C22 24 12 30 8 44 C-2 32 -8 28 -20 34 Z" fill="#15b86a"/>
    <path d="M-10 12 C12 -10 42 -6 54 22 C34 18 16 24 6 40 C0 26 -4 18 -10 12 Z" fill="#2dd883"/>
    <path d="M6 8 C30 -16 62 -10 78 20 C50 14 28 20 14 38 C12 26 10 18 6 8 Z" fill="#7ae4a8"/>
  </g>

  <g opacity="0.3">
    <path d="M94 216 C128 208 164 210 198 220" stroke="#ffffff" stroke-width="4" fill="none" stroke-linecap="round"/>
    <path d="M452 222 C494 212 534 214 578 226" stroke="#ffffff" stroke-width="4" fill="none" stroke-linecap="round"/>
    <path d="M812 220 C856 210 898 214 944 226" stroke="#ffffff" stroke-width="4" fill="none" stroke-linecap="round"/>
  </g>

  <g fill="#fff8d6" opacity="0.9">
    <circle cx="298" cy="242" r="3"/>
    <circle cx="326" cy="252" r="2.4"/>
    <circle cx="736" cy="248" r="3"/>
    <circle cx="768" cy="240" r="2.2"/>
    <circle cx="1038" cy="250" r="2.5"/>
  </g>
</svg>
