<svg xmlns="http://www.w3.org/2000/svg" viewBox="0 0 1200 300" preserveAspectRatio="xMidYMid slice">
  <defs>
    <linearGradient id="sky" x1="0" y1="0" x2="1" y2="1">
      <stop offset="0%" stop-color="#0aa1df"/>
      <stop offset="55%" stop-color="#89c8ea"/>
      <stop offset="100%" stop-color="#d5e7f5"/>
    </linearGradient>
    <linearGradient id="water" x1="0" y1="0" x2="0" y2="1">
      <stop offset="0%" stop-color="#cfe6f4"/>
      <stop offset="100%" stop-color="#f3f9ff"/>
    </linearGradient>
  </defs>

  <rect width="1200" height="190" fill="url(#sky)"/>
  <rect y="190" width="1200" height="110" fill="url(#water)"/>

  <g fill="#2f5f88" opacity="0.82">
    <rect x="102" y="82" width="36" height="84"/>
    <rect x="146" y="62" width="28" height="104"/>
    <rect x="184" y="92" width="24" height="74"/>
    <rect x="248" y="96" width="34" height="70"/>
    <rect x="292" y="74" width="42" height="92"/>
    <rect x="346" y="88" width="20" height="78"/>
    <rect x="372" y="68" width="48" height="98"/>
    <rect x="428" y="80" width="44" height="86"/>
    <rect x="478" y="92" width="36" height="74"/>
    <rect x="558" y="60" width="28" height="106"/>
    <rect x="676" y="84" width="26" height="82"/>
    <rect x="724" y="90" width="32" height="76"/>
    <rect x="844" y="72" width="38" height="94"/>
    <rect x="1012" y="82" width="30" height="84"/>
  </g>

  <g fill="#d9e4ef">
    <rect x="606" y="44" width="16" height="122"/>
    <rect x="632" y="44" width="16" height="122"/>
  </g>
  <g fill="#f1f5f9">
    <polygon points="614,44 618,28 622,44"/>
    <polygon points="640,44 644,28 648,44"/>
  </g>

  <path d="M0 202 C180 218 360 218 540 202 C720 186 900 186 1200 206" stroke="#aacfe6" stroke-width="4" fill="none" opacity="0.7"/>
  <path d="M0 226 C180 242 360 242 540 226 C720 210 900 210 1200 230" stroke="#bddced" stroke-width="3" fill="none" opacity="0.6"/>

  <rect x="0" y="170" width="1200" height="6" fill="#9ec6dc" opacity="0.7"/>
</svg>
