<svg xmlns="http://www.w3.org/2000/svg" viewBox="0 0 1200 300" preserveAspectRatio="xMidYMid slice">
  <rect width="1200" height="300" fill="#000" opacity="0.04"/>

  <g fill="#000" opacity="0.18">
    <ellipse cx="120" cy="62" rx="48" ry="18"/>
    <ellipse cx="286" cy="54" rx="56" ry="20"/>
    <ellipse cx="464" cy="66" rx="52" ry="18"/>
    <ellipse cx="722" cy="52" rx="60" ry="20"/>
    <ellipse cx="932" cy="58" rx="54" ry="19"/>
    <ellipse cx="1088" cy="46" rx="42" ry="15"/>
  </g>

  <g fill="#000" opacity="0.42">
    <rect x="90" y="162" width="72" height="78"/>
    <rect x="170" y="148" width="52" height="92"/>
    <rect x="228" y="138" width="64" height="102"/>
    <rect x="300" y="126" width="74" height="114"/>
    <rect x="380" y="150" width="56" height="90"/>
    <rect x="442" y="134" width="48" height="106"/>
    <rect x="500" y="120" width="70" height="120"/>
    <rect x="578" y="142" width="54" height="98"/>
    <rect x="638" y="154" width="46" height="86"/>
    <rect x="690" y="136" width="80" height="104"/>
    <rect x="778" y="144" width="62" height="96"/>
    <rect x="848" y="126" width="68" height="114"/>
    <rect x="924" y="136" width="70" height="104"/>
    <rect x="1002" y="150" width="58" height="90"/>
  </g>

  <g fill="#000" opacity="0.72">
    <rect x="544" y="34" width="16" height="206"/>
    <polygon points="552,24 560,34 544,34"/>
    <rect x="540" y="56" width="24" height="8"/>
    <rect x="536" y="72" width="32" height="10"/>

    <rect x="468" y="56" width="14" height="184"/>
    <polygon points="475,42 486,56 464,56"/>
    <rect x="456" y="80" width="38" height="8"/>

    <rect x="612" y="48" width="12" height="192"/>
    <polygon points="618,36 628,48 608,48"/>

    <rect x="704" y="44" width="20" height="196"/>
    <polygon points="714,26 724,44 704,44"/>
    <rect x="700" y="66" width="28" height="8"/>

    <rect x="732" y="44" width="20" height="196"/>
    <polygon points="742,26 752,44 732,44"/>
    <rect x="728" y="66" width="28" height="8"/>

    <rect x="698" y="78" width="60" height="162" opacity="0.82"/>
    <rect x="706" y="88" width="8" height="10"/>
    <rect x="720" y="88" width="8" height="10"/>
    <rect x="734" y="88" width="8" height="10"/>
    <rect x="748" y="88" width="8" height="10"/>
    <rect x="706" y="104" width="8" height="10"/>
    <rect x="720" y="104" width="8" height="10"/>
    <rect x="734" y="104" width="8" height="10"/>
    <rect x="748" y="104" width="8" height="10"/>
    <rect x="706" y="120" width="8" height="10"/>
    <rect x="720" y="120" width="8" height="10"/>
    <rect x="734" y="120" width="8" height="10"/>
    <rect x="748" y="120" width="8" height="10"/>
  </g>

  <g fill="#000" opacity="0.28">
    <path d="M84 236 L132 214 L180 236 Z"/>
    <path d="M196 236 L244 202 L292 236 Z"/>
    <path d="M980 236 L1032 206 L1084 236 Z"/>
  </g>

  <rect x="0" y="238" width="1200" height="10" fill="#000" opacity="0.72"/>
  <rect x="0" y="248" width="1200" height="52" fill="#000" opacity="0.26"/>
</svg>
