<svg xmlns="http://www.w3.org/2000/svg" viewBox="0 0 512 512" fill="none">
  <defs>
    <linearGradient id="left" x1="0" y1="0" x2="1" y2="1">
      <stop offset="0%" stop-color="#5EADE8"/>
      <stop offset="100%" stop-color="#2C7AB6"/>
    </linearGradient>
    <linearGradient id="right" x1="0" y1="0" x2="1" y2="1">
      <stop offset="0%" stop-color="#F6B0D2"/>
      <stop offset="100%" stop-color="#E36AA4"/>
    </linearGradient>
  </defs>

  <rect x="28" y="28" width="456" height="456" rx="108" fill="#FFFFFF"/>
  <rect x="44" y="44" width="424" height="170" rx="80" fill="#F7F9FC"/>

  <circle cx="206" cy="252" r="96" fill="url(#left)"/>
  <circle cx="306" cy="252" r="96" fill="url(#right)"/>

  <circle cx="178" cy="228" r="10" fill="white"/>
  <circle cx="230" cy="228" r="10" fill="white"/>
  <path d="M175 276c11 12 21 17 29 17 8 0 18-5 29-17" stroke="white" stroke-width="12" stroke-linecap="round"/>

  <circle cx="278" cy="228" r="10" fill="white"/>
  <circle cx="330" cy="228" r="10" fill="white"/>
  <path d="M275 276c11 12 21 17 29 17 8 0 18-5 29-17" stroke="white" stroke-width="12" stroke-linecap="round"/>

  <path d="M256 404c42-24 64-47 64-71 0-16-12-29-29-29-10 0-19 5-27 15-8-10-17-15-27-15-17 0-29 13-29 29 0 24 22 47 64 71z" fill="white"/>
</svg>
